<?xml version="1.0" encoding="UTF-8"?>
<svg xmlns="http://www.w3.org/2000/svg" xmlns:xlink="http://www.w3.org/1999/xlink" width="48px" height="48px" viewBox="0 0 48 48" version="1.1">
<defs>
<linearGradient id="linear0" gradientUnits="userSpaceOnUse" x1="5.8091" y1="506.0044" x2="7.1725" y2="506.0044" gradientTransform="matrix(0,15.054581,15.054581,0,-7593.692869,-73.940822)">
<stop offset="0" style="stop-color:rgb(43.921569%,69.019608%,87.45098%);stop-opacity:1;"/>
<stop offset="0.5" style="stop-color:rgb(10.588235%,50.588235%,77.254902%);stop-opacity:1;"/>
<stop offset="1" style="stop-color:rgb(29.019608%,59.607843%,80.784314%);stop-opacity:1;"/>
</linearGradient>
</defs>
<g id="surface1">
<path style=" stroke:none;fill-rule:nonzero;fill:rgb(54.901961%,58.823529%,63.137255%);fill-opacity:1;" d="M 4.726562 23.539062 L 0.0429688 34.023438 L 3.109375 34.023438 L 4.015625 31.800781 L 8.726562 31.800781 L 9.632812 34.023438 L 12.683594 34.023438 L 7.988281 23.539062 Z M 6.382812 26.011719 L 7.171875 28.011719 L 7.964844 30.011719 L 4.804688 30.011719 Z M 6.382812 26.011719 "/>
<path style=" stroke:none;fill-rule:nonzero;fill:rgb(54.901961%,58.823529%,63.137255%);fill-opacity:1;" d="M 27.417969 23.539062 L 22.734375 34.023438 L 25.800781 34.023438 L 26.707031 31.800781 L 31.417969 31.800781 L 32.324219 34.023438 L 35.390625 34.023438 L 30.695312 23.539062 Z M 29.089844 26.011719 L 30.667969 30.011719 L 27.511719 30.011719 Z M 29.089844 26.011719 "/>
<path style=" stroke:none;fill-rule:nonzero;fill:rgb(54.901961%,58.823529%,63.137255%);fill-opacity:1;" d="M 36.191406 23.5 L 39.664062 23.5 L 41.886719 26.855469 L 44.242188 23.5 L 47.675781 23.5 L 43.546875 28.589844 L 47.9375 34.0625 L 44.464844 34.0625 L 41.941406 30.496094 L 39.46875 34.0625 L 35.757812 34.0625 L 40.230469 28.644531 Z M 36.191406 23.5 "/>
<path style=" stroke:none;fill-rule:nonzero;fill:rgb(54.901961%,58.823529%,63.137255%);fill-opacity:1;" d="M 21.484375 19.066406 L 17.328125 23.15625 L 18.761719 24.460938 L 20.117188 23.09375 L 20.273438 23.09375 L 20.273438 30.90625 C 20.273438 31.894531 19.472656 32.695312 18.484375 32.695312 L 17.066406 32.695312 C 16.078125 32.695312 15.277344 31.894531 15.277344 30.90625 L 15.277344 30.078125 L 12.515625 30.078125 L 12.515625 31.117188 C 12.515625 32.90625 13.960938 34.351562 15.75 34.351562 L 19.433594 34.351562 C 21.222656 34.351562 22.667969 32.90625 22.667969 31.117188 L 22.667969 23.105469 L 22.773438 23.105469 L 24.351562 24.460938 L 25.601562 23.15625 Z M 21.484375 19.066406 "/>
<path style=" stroke:none;fill-rule:nonzero;fill:rgb(54.901961%,58.823529%,63.137255%);fill-opacity:1;" d="M 13.84375 29.222656 L 18 25.132812 L 16.566406 23.828125 L 15.210938 25.195312 L 15.054688 25.195312 L 15.054688 17.382812 C 15.054688 16.398438 15.855469 15.59375 16.84375 15.59375 L 18.261719 15.59375 C 19.25 15.59375 20.050781 16.398438 20.050781 17.382812 L 20.050781 18.210938 L 22.816406 18.210938 L 22.816406 17.171875 C 22.816406 15.382812 21.367188 13.9375 19.578125 13.9375 L 15.894531 13.9375 C 14.105469 13.9375 12.660156 15.382812 12.660156 17.171875 L 12.660156 25.183594 L 12.554688 25.183594 L 10.976562 23.828125 L 9.726562 25.132812 Z M 13.84375 29.222656 "/>
<path style=" stroke:none;fill-rule:nonzero;fill:url(#linear0);" d="M 15.933594 13.671875 C 14.144531 13.671875 12.699219 15.121094 12.699219 16.910156 L 12.699219 24.921875 L 12.59375 24.921875 L 11.015625 23.566406 L 9.765625 24.867188 L 13.855469 28.960938 L 18.011719 24.867188 L 16.578125 23.566406 L 15.226562 24.933594 L 15.082031 24.933594 L 15.082031 17.121094 C 15.082031 16.132812 15.882812 15.332031 16.871094 15.332031 L 18.289062 15.332031 C 19.277344 15.332031 20.078125 16.132812 20.078125 17.121094 L 20.078125 17.949219 L 22.839844 17.949219 L 22.839844 16.910156 C 22.839844 15.121094 21.394531 13.671875 19.605469 13.671875 Z M 21.484375 18.816406 L 17.328125 22.910156 L 18.761719 24.210938 L 20.117188 22.84375 L 20.273438 22.84375 L 20.273438 30.65625 C 20.273438 31.640625 19.472656 32.445312 18.484375 32.445312 L 17.066406 32.445312 C 16.078125 32.445312 15.277344 31.640625 15.277344 30.65625 L 15.277344 29.828125 L 12.515625 29.828125 L 12.515625 30.867188 C 12.515625 32.65625 13.960938 34.101562 15.75 34.101562 L 19.433594 34.101562 C 21.222656 34.101562 22.667969 32.65625 22.667969 30.867188 L 22.667969 22.855469 L 22.773438 22.855469 L 24.351562 24.210938 L 25.601562 22.90625 Z M 36.191406 23.25 L 40.230469 28.378906 L 35.746094 33.800781 L 39.453125 33.800781 L 41.929688 30.234375 L 44.453125 33.800781 L 47.9375 33.800781 L 43.546875 28.328125 L 47.675781 23.25 L 44.253906 23.25 L 41.886719 26.589844 L 39.664062 23.25 Z M 4.726562 23.289062 L 0.0429688 33.773438 L 3.109375 33.773438 L 4.015625 31.550781 L 8.726562 31.550781 L 9.632812 33.773438 L 12.683594 33.773438 L 7.988281 23.289062 Z M 27.417969 23.289062 L 22.734375 33.773438 L 25.800781 33.773438 L 26.707031 31.550781 L 31.417969 31.550781 L 32.324219 33.773438 L 35.390625 33.773438 L 30.695312 23.289062 Z M 6.382812 25.761719 L 7.171875 27.761719 L 7.964844 29.761719 L 4.804688 29.761719 Z M 29.089844 25.761719 L 30.667969 29.761719 L 27.511719 29.761719 Z M 29.089844 25.761719 "/>
<path style=" stroke:none;fill-rule:nonzero;fill:rgb(4.705882%,29.803922%,45.882353%);fill-opacity:1;" d="M 15.933594 13.671875 L 15.933594 13.648438 C 15.027344 13.648438 14.210938 14.015625 13.621094 14.605469 C 13.027344 15.199219 12.660156 16.015625 12.660156 16.921875 L 12.660156 24.90625 L 12.59375 24.90625 L 11.003906 23.539062 L 9.710938 24.882812 L 13.855469 29.023438 L 18.066406 24.882812 L 16.578125 23.539062 L 15.210938 24.921875 L 15.105469 24.921875 L 15.105469 17.132812 C 15.105469 16.160156 15.894531 15.371094 16.867188 15.371094 L 18.289062 15.371094 C 19.261719 15.371094 20.050781 16.160156 20.050781 17.132812 L 20.050781 18 L 22.878906 18 L 22.878906 16.9375 C 22.878906 16.027344 22.511719 15.210938 21.917969 14.621094 C 21.328125 14.03125 20.511719 13.660156 19.605469 13.660156 L 15.921875 13.660156 L 15.921875 13.699219 L 19.605469 13.699219 C 21.378906 13.699219 22.816406 15.132812 22.816406 16.910156 L 22.816406 17.921875 L 20.105469 17.921875 L 20.105469 17.121094 C 20.105469 16.621094 19.910156 16.160156 19.566406 15.832031 C 19.238281 15.503906 18.777344 15.292969 18.277344 15.292969 L 16.855469 15.292969 C 16.359375 15.292969 15.898438 15.488281 15.566406 15.832031 C 15.238281 16.160156 15.027344 16.621094 15.027344 17.121094 L 15.027344 24.972656 L 15.226562 24.972656 L 16.566406 23.621094 L 17.949219 24.867188 L 13.832031 28.921875 L 9.777344 24.867188 L 10.976562 23.621094 L 12.542969 24.960938 L 12.6875 24.960938 L 12.6875 16.910156 C 12.6875 15.136719 14.121094 13.699219 15.894531 13.699219 L 15.894531 13.675781 L 15.933594 13.675781 Z M 21.484375 18.816406 L 21.460938 18.792969 L 17.277344 22.910156 L 18.761719 24.25 L 20.132812 22.871094 L 20.234375 22.871094 L 20.234375 30.65625 C 20.234375 31.628906 19.445312 32.417969 18.472656 32.417969 L 17.054688 32.417969 C 16.078125 32.417969 15.289062 31.628906 15.289062 30.65625 L 15.289062 29.789062 L 12.460938 29.789062 L 12.460938 30.855469 C 12.460938 31.761719 12.832031 32.578125 13.421875 33.167969 C 14.015625 33.761719 14.828125 34.128906 15.738281 34.128906 L 19.421875 34.128906 C 20.328125 34.128906 21.144531 33.761719 21.734375 33.167969 C 22.328125 32.578125 22.695312 31.761719 22.695312 30.855469 L 22.695312 22.871094 L 22.761719 22.871094 L 24.351562 24.238281 L 25.640625 22.894531 L 21.496094 18.75 L 21.472656 18.777344 L 21.484375 18.816406 L 21.460938 18.84375 L 25.523438 22.910156 L 24.328125 24.160156 L 22.761719 22.816406 L 22.617188 22.816406 L 22.617188 30.867188 C 22.617188 32.644531 21.183594 34.078125 19.40625 34.078125 L 15.722656 34.078125 C 13.949219 34.078125 12.515625 32.644531 12.515625 30.867188 L 12.515625 29.855469 L 15.222656 29.855469 L 15.222656 30.65625 C 15.222656 31.15625 15.421875 31.617188 15.761719 31.945312 C 16.089844 32.273438 16.550781 32.484375 17.050781 32.484375 L 18.472656 32.484375 C 18.972656 32.484375 19.429688 32.289062 19.761719 31.945312 C 20.089844 31.617188 20.300781 31.15625 20.300781 30.65625 L 20.300781 22.804688 L 20.101562 22.804688 L 18.761719 24.15625 L 17.378906 22.90625 L 21.523438 18.84375 L 21.484375 18.816406 L 21.460938 18.84375 Z M 36.191406 23.25 L 36.164062 23.277344 L 40.191406 28.394531 L 35.679688 33.851562 L 39.46875 33.851562 L 41.929688 30.300781 L 44.441406 33.851562 L 48.003906 33.851562 L 43.585938 28.339844 L 47.742188 23.222656 L 44.230469 23.222656 L 41.886719 26.539062 L 39.679688 23.222656 L 36.113281 23.222656 L 36.152344 23.277344 L 36.191406 23.25 L 36.191406 23.277344 L 39.652344 23.277344 L 41.886719 26.644531 L 44.253906 23.277344 L 47.597656 23.277344 L 43.492188 28.328125 L 47.859375 33.773438 L 44.464844 33.773438 L 41.941406 30.183594 L 39.453125 33.773438 L 35.824219 33.773438 L 40.269531 28.378906 L 36.203125 23.222656 L 36.191406 23.25 L 36.191406 23.277344 Z M 4.726562 23.289062 L 4.699219 23.277344 L 0.00390625 33.800781 L 3.136719 33.800781 L 4.042969 31.578125 L 8.699219 31.578125 L 9.609375 33.800781 L 12.738281 33.800781 L 8.015625 23.25 L 4.699219 23.25 L 4.6875 23.261719 L 4.726562 23.289062 L 4.726562 23.316406 L 7.976562 23.316406 L 12.644531 33.734375 L 9.660156 33.734375 L 8.753906 31.511719 L 3.988281 31.511719 L 3.082031 33.734375 L 0.0820312 33.734375 L 4.738281 23.289062 L 4.726562 23.289062 L 4.726562 23.316406 Z M 27.417969 23.289062 L 27.390625 23.277344 L 22.695312 33.800781 L 25.828125 33.800781 L 26.734375 31.578125 L 31.390625 31.578125 L 32.296875 33.800781 L 35.441406 33.800781 L 30.71875 23.25 L 27.40625 23.25 L 27.390625 23.261719 L 27.417969 23.289062 L 27.417969 23.316406 L 30.667969 23.316406 L 35.335938 33.734375 L 32.351562 33.734375 L 31.445312 31.511719 L 26.695312 31.511719 L 25.789062 33.734375 L 22.800781 33.734375 L 27.457031 23.289062 L 27.417969 23.289062 L 27.417969 23.316406 Z M 6.382812 25.761719 L 6.359375 25.777344 L 7.148438 27.773438 L 7.921875 29.722656 L 4.84375 29.722656 L 5.621094 27.761719 L 6.410156 25.761719 L 6.382812 25.761719 L 6.359375 25.777344 L 6.382812 25.761719 L 6.359375 25.75 L 5.570312 27.75 L 4.765625 29.789062 L 8.027344 29.789062 L 7.214844 27.75 L 6.382812 25.683594 L 6.359375 25.761719 Z M 29.089844 25.761719 L 29.0625 25.777344 L 29.851562 27.773438 L 30.628906 29.722656 L 27.550781 29.722656 L 28.324219 27.761719 L 29.113281 25.761719 L 29.089844 25.761719 L 29.0625 25.777344 L 29.089844 25.761719 L 29.0625 25.75 L 28.273438 27.75 L 27.46875 29.789062 L 30.734375 29.789062 L 29.917969 27.75 L 29.089844 25.683594 L 29.0625 25.761719 Z M 29.089844 25.761719 "/>
</g>
</svg>
