<?xml version="1.0" encoding="UTF-8"?>
<svg xmlns="http://www.w3.org/2000/svg" xmlns:xlink="http://www.w3.org/1999/xlink" width="80px" height="48px" viewBox="0 0 80 48" version="1.1">
<g id="surface1">
<path style=" stroke:none;fill-rule:nonzero;fill:rgb(0%,0%,0%);fill-opacity:1;" d="M 18.914062 12.632812 L 33.972656 12.632812 L 33.972656 13.824219 L 20.296875 13.824219 L 20.296875 22.800781 L 33.15625 22.800781 L 33.15625 23.996094 L 20.296875 23.996094 L 20.296875 33.851562 L 34.128906 33.851562 L 34.128906 35.046875 L 18.914062 35.046875 Z M 35.320312 12.632812 L 36.921875 12.632812 L 44.007812 22.488281 L 51.253906 12.632812 L 61.109375 0.109375 L 44.917969 23.523438 L 53.261719 35.046875 L 51.601562 35.046875 L 44.007812 24.5625 L 36.386719 35.046875 L 34.753906 35.046875 L 43.164062 23.523438 Z M 53.859375 13.824219 L 53.859375 12.632812 L 71.015625 12.632812 L 71.015625 13.824219 L 63.113281 13.824219 L 63.113281 35.046875 L 61.730469 35.046875 L 61.730469 13.824219 Z M 53.859375 13.824219 "/>
<path style=" stroke:none;fill-rule:nonzero;fill:rgb(0%,0%,0%);fill-opacity:1;" d="M 0.078125 12.632812 L 1.804688 12.632812 L 25.59375 48.117188 L 15.761719 35.046875 L 1.519531 14.328125 L 1.457031 35.046875 L 0.078125 35.046875 Z M 0.078125 12.632812 "/>
<path style=" stroke:none;fill-rule:nonzero;fill:rgb(0%,0%,0%);fill-opacity:1;" d="M 70.878906 33.492188 C 71.164062 33.492188 71.371094 33.273438 71.371094 32.992188 C 71.371094 32.710938 71.164062 32.496094 70.878906 32.496094 C 70.597656 32.496094 70.382812 32.710938 70.382812 32.992188 C 70.382812 33.273438 70.597656 33.492188 70.878906 33.492188 Z M 72.234375 32.179688 C 72.234375 33.011719 72.835938 33.554688 73.710938 33.554688 C 74.644531 33.554688 75.207031 32.992188 75.207031 32.023438 L 75.207031 28.601562 L 74.457031 28.601562 L 74.457031 32.019531 C 74.457031 32.558594 74.183594 32.847656 73.703125 32.847656 C 73.273438 32.847656 72.984375 32.578125 72.972656 32.179688 Z M 76.191406 32.136719 C 76.246094 33 76.96875 33.554688 78.042969 33.554688 C 79.191406 33.554688 79.90625 32.972656 79.90625 32.046875 C 79.90625 31.320312 79.5 30.917969 78.503906 30.6875 L 77.972656 30.558594 C 77.339844 30.410156 77.085938 30.210938 77.085938 29.867188 C 77.085938 29.433594 77.480469 29.148438 78.074219 29.148438 C 78.640625 29.148438 79.027344 29.425781 79.097656 29.871094 L 79.832031 29.871094 C 79.789062 29.054688 79.070312 28.484375 78.085938 28.484375 C 77.027344 28.484375 76.324219 29.054688 76.324219 29.917969 C 76.324219 30.628906 76.722656 31.050781 77.597656 31.253906 L 78.222656 31.40625 C 78.863281 31.554688 79.144531 31.777344 79.144531 32.144531 C 79.144531 32.574219 78.703125 32.886719 78.097656 32.886719 C 77.449219 32.886719 77 32.59375 76.9375 32.136719 Z M 76.191406 32.136719 "/>
</g>
</svg>
